# xmcd CD database file
#
# Track frame offsets:
#	150
#	19000
#	41462
#	66442
#	81975
#	106355
#	128100
#	147512
#	169327
#	188195
#	210415
#	229962
#	249055
#	267410
#	286847
#
# Disc length: 4084 seconds
#
# Revision: 1
# Processed by: cddbd v1.5PL3 Copyright (c) Steve Scherf et al.
# Submitted via: CDex 1.50Beta6
#
DISCID=d80ff20f
DTITLE=SOFT BALLET - The Very Best Of SOFT BALLET
DYEAR=2000
DGENRE=JPop
TTITLE0=With You
TTITLE1=KO・KA・GE・NI
TTITLE2=Spindle
TTITLE3=No Pleasure
TTITLE4=Private Pride
TTITLE5=Escape -Rebuild-
TTITLE6=Faith Is A
TTITLE7=Virtual War
TTITLE8=America
TTITLE9=Final
TTITLE10=Body To Body
TTITLE11=Twist Of Love (Original Version)
TTITLE12=Needle (Japanese Version)
TTITLE13=Ego Dance (Single Version)
TTITLE14=Much Of Madness,More Of Sin
EXTD=YEAR: 2000
EXTT0=
EXTT1=
EXTT2=
EXTT3=
EXTT4=
EXTT5=
EXTT6=
EXTT7=
EXTT8=
EXTT9=
EXTT10=
EXTT11=
EXTT12=
EXTT13=
EXTT14=
PLAYORDER=
